<svg width="14" height="14" viewBox="0 0 14 14" fill="none" xmlns="http://www.w3.org/2000/svg">
<path fill-rule="evenodd" clip-rule="evenodd" d="M2 0C0.895431 0 0 0.89543 0 2V12C0 13.1046 0.89543 14 2 14H12C13.1046 14 14 13.1046 14 12V2C14 0.895431 13.1046 0 12 0H2ZM10.7782 10.0711L7.5963 6.8892L10.7782 3.70733L10.0711 3.00022L6.8892 6.18209L3.70711 3L3 3.70711L10.0711 10.7782L10.7782 10.0711ZM6.8892 6.18209L6.88867 6.18262L7.59578 6.88972L7.5963 6.8892L6.8892 6.18209ZM6.18198 6.88931L3 10.0713L3.70711 10.7784L6.88909 7.59642L6.18198 6.88931Z" fill="#878787"/>
</svg>
